<svg width="32" height="28" viewBox="0 0 32 28" fill="none" xmlns="http://www.w3.org/2000/svg">
<g id="Frame 11">
<path id="Vector" d="M9.34945 24.2872C7.96291 24.2872 6.57638 23.0791 5.88311 22.5614C2.41677 20.1453 1.37686 19.2824 0.683594 18.7646V26.013C0.683594 26.966 1.45973 27.7388 2.41677 27.7388H16.2821C17.2392 27.7388 18.0153 26.966 18.0153 26.013V18.7646C17.322 19.2824 16.2821 20.1453 12.8158 22.5614C12.1225 23.0791 10.736 24.2872 9.34945 24.2872ZM16.2821 13.9324H2.41677C1.45973 13.9324 0.683594 14.7052 0.683594 15.6582V16.5211C2.07013 17.5566 1.89681 17.5566 6.92301 21.1808C7.44296 21.5259 8.48286 22.5614 9.34945 22.5614C10.216 22.5614 11.2559 21.5259 11.7759 21.3533C16.8021 17.7292 16.6288 17.7292 18.0153 16.6937V15.6582C18.0153 14.7052 17.2392 13.9324 16.2821 13.9324ZM30.1475 8.75499H12.8158C11.8588 8.75499 11.0826 9.52782 11.0826 10.4808V12.2066H16.2821C18.0808 12.2066 19.5638 13.5775 19.7328 15.3249L19.7485 15.313V22.5614H30.1475C31.1045 22.5614 31.8807 21.7886 31.8807 20.8356V10.4808C31.8807 9.52782 31.1045 8.75499 30.1475 8.75499ZM28.4143 15.6582H24.948V12.2066H28.4143V15.6582ZM9.34945 10.4808C9.34945 8.57755 10.9044 7.02918 12.8158 7.02918H24.948V1.85178C24.948 0.898812 24.1719 0.125977 23.2148 0.125977H5.88311C4.92607 0.125977 4.14994 0.898812 4.14994 1.85178V12.2066H9.34945V10.4808Z" fill="#FFD700"/>
</g>
</svg>
