<svg width="24" height="28" viewBox="0 0 24 28" fill="none" xmlns="http://www.w3.org/2000/svg">
<g id="Frame 5">
<path id="Vector" d="M15.1985 7.76205C15.1181 7.68146 15.0226 7.61752 14.9175 7.5739C14.8123 7.53027 14.6996 7.50781 14.5858 7.50781C14.472 7.50781 14.3593 7.53027 14.2541 7.5739C14.149 7.61752 14.0535 7.68146 13.9731 7.76205L8.22004 13.5151C8.15586 13.5792 8.10494 13.6553 8.0702 13.739C8.03546 13.8228 8.01758 13.9125 8.01758 14.0032C8.01758 14.0939 8.03546 14.1837 8.0702 14.2674C8.10494 14.3512 8.15586 14.4272 8.22004 14.4913L13.9731 20.2444C14.3123 20.5836 14.8593 20.5836 15.1985 20.2444C15.5377 19.9051 15.5377 19.3582 15.1985 19.019L10.1862 13.9997L15.2054 8.98051C15.5377 8.64821 15.5377 8.09436 15.1985 7.76205Z" fill="#C45F5F"/>
</g>
</svg>
