<svg width="24" height="28" viewBox="0 0 24 28" fill="none" xmlns="http://www.w3.org/2000/svg">
<g id="Frame 6">
<path id="Vector" d="M8.8015 20.9294C8.88189 21.0099 8.97738 21.0739 9.08252 21.1175C9.18765 21.1611 9.30036 21.1836 9.41419 21.1836C9.52802 21.1836 9.64073 21.1611 9.74586 21.1175C9.851 21.0739 9.9465 21.0099 10.0269 20.9294L15.78 15.1763C15.8441 15.1122 15.8951 15.0362 15.9298 14.9524C15.9645 14.8687 15.9824 14.7789 15.9824 14.6882C15.9824 14.5975 15.9645 14.5078 15.9298 14.424C15.8951 14.3402 15.8441 14.2642 15.78 14.2001L10.0269 8.44705C9.68765 8.10782 9.14073 8.10782 8.8015 8.44705C8.46227 8.78628 8.46227 9.3332 8.8015 9.67243L13.8138 14.6917L8.79458 19.7109C8.46227 20.0432 8.46227 20.597 8.8015 20.9294Z" fill="#C45F5F"/>
</g>
</svg>
