<svg width="20" height="26" viewBox="0 0 20 26" fill="none" xmlns="http://www.w3.org/2000/svg">
<g id="Frame 10">
<path id="Vector" d="M9.22202 24.8179C2.20321 14.4602 0.900391 13.3972 0.900391 9.59056C0.900391 4.37634 5.05285 0.149414 10.1752 0.149414C15.2975 0.149414 19.45 4.37634 19.45 9.59056C19.45 13.3972 18.1472 14.4602 11.1284 24.8179C10.6678 25.4952 9.68257 25.4951 9.22202 24.8179ZM10.1752 13.5244C12.3095 13.5244 14.0397 11.7632 14.0397 9.59056C14.0397 7.41797 12.3095 5.65675 10.1752 5.65675C8.04088 5.65675 6.3107 7.41797 6.3107 9.59056C6.3107 11.7632 8.04088 13.5244 10.1752 13.5244Z" fill="#FFD700"/>
</g>
</svg>
