<svg width="24" height="23" viewBox="0 0 24 23" fill="none" xmlns="http://www.w3.org/2000/svg">
<g id="Frame 12">
<path id="Vector" d="M23.0166 16.1952L18.0366 14.1394C17.8238 14.0521 17.5874 14.0337 17.3629 14.087C17.1383 14.1403 16.9378 14.2624 16.7916 14.4349L14.5861 17.0303C11.1249 15.4584 8.3394 12.7754 6.70746 9.44155L9.40201 7.31725C9.5815 7.17663 9.70854 6.98352 9.7639 6.76714C9.81926 6.55076 9.79992 6.3229 9.70881 6.11805L7.57452 1.32125C7.47452 1.10043 7.29767 0.920137 7.07445 0.81146C6.85123 0.702784 6.59563 0.672536 6.35174 0.725932L1.72743 1.75382C1.49229 1.80612 1.28249 1.93365 1.13229 2.11558C0.982083 2.29752 0.900336 2.52313 0.900391 2.75558C0.900391 13.7411 10.1446 22.628 21.5319 22.628C21.7733 22.6282 22.0077 22.5495 22.1966 22.4048C22.3856 22.2601 22.5181 22.058 22.5724 21.8314L23.6395 17.3773C23.6946 17.1412 23.6626 16.894 23.5489 16.6783C23.4352 16.4625 23.2469 16.2917 23.0166 16.1952Z" fill="#FFD700"/>
</g>
</svg>
